# AST/ASF file generated using VICON BodyLanguage
# -----------------------------------------------
:version 1.10
:name VICON
:units
  mass 1.0
  length 0.45
  angle deg
:documentation
   .ast/.asf automatically generated from VICON data using
   VICON BodyBuilder and BodyLanguage model FoxedUp or BRILLIANT.MOD
:root
   order TX TY TZ RX RY RZ
   axis XYZ
   position 0 0 0  
   orientation 0 0 0 
:bonedata
  begin
     id 1 
     name lhipjoint
     direction 0.602128 -0.715006 0.355257 
     length 2.21237 
     axis 0 0 0  XYZ
  end
  begin
     id 2 
     name lfemur
     direction 0.34202 -0.939693 0  
     length 6.71649  
     axis 0 0 20  XYZ
    dof rx ry rz
    limits (-160.0 20.0)
           (-70.0 70.0)
           (-60.0 70.0)
  end
  begin
     id 3 
     name ltibia
     direction 0.34202 -0.939693 0   
     length 6.97123   
     axis 0 0 20   XYZ
    dof rx
    limits (-10.0 170.0)
  end
  begin
     id 4 
     name lfoot
     direction 0.0655697 -0.180151 0.981451   
     length 1.80924   
     axis -90 7.62852e-016 20   XYZ
    dof rx rz
    limits (-45.0 90.0)
           (-70.0 20.0)
  end
  begin
     id 5 
     name ltoes
     direction 1.53545e-011 -4.21827e-011 1   
     length 0.916331   
     axis -90 7.62852e-016 20   XYZ
    dof rx
    limits (-90.0 20.0)
  end
  begin
     id 6 
     name rhipjoint
     direction -0.625414 -0.698792 0.347201   
     length 2.2637  
     axis 0 0 0  XYZ 
  end
  begin
     id 7 
     name rfemur
     direction -0.34202 -0.939693 0   
     length 7.07595   
     axis 0 0 -20   XYZ
    dof rx ry rz
    limits (-160.0 20.0)
           (-70.0 70.0)
           (-70.0 60.0)
  end
  begin
     id 8 
     name rtibia
     direction -0.34202 -0.939693 0   
     length 7.22924   
     axis 0 0 -20   XYZ
    dof rx
    limits (-10.0 170.0)
 end
 begin
     id 9 
     name rfoot
     direction -0.0766747 -0.210662 0.974547   
     length 1.98482  
     axis -90 -7.62852e-016 -20   XYZ
    dof rx rz
    limits (-45.0 90.0)
           (-20.0 70.0)
  end
  begin
     id 10 
     name rtoes
     direction -1.53532e-011 -4.21867e-011 1   
     length 0.999842   
     axis -90 -7.62852e-016 -20   XYZ
    dof rx
    limits (-90.0 20.0)
  end
  begin
     id 11 
     name lowerback
     direction -0.0224668 0.997354 -0.0691422   
     length 2.09945   
     axis 0 0 0   XYZ
    dof rx ry rz
    limits (-20.0 45.0)
           (-30.0 30.0)
           (-30.0 30.0)
  end
  begin
     id 12 
     name upperback
     direction 0.0134698 0.998451 -0.0539888   
     length 2.09758   
     axis 0 0 0   XYZ
    dof rx ry rz
    limits (-20.0 45.0)
           (-30.0 30.0)
           (-30.0 30.0)
  end
  begin
     id 13 
     name thorax
     direction 0.0241905 0.99948 -0.0213333   
     length 2.10428   
     axis 0 0 0   XYZ
    dof rx ry rz
    limits (-20.0 45.0)
           (-30.0 30.0)
           (-30.0 30.0)
  end
  begin
     id 14 
     name lowerneck
     direction -0.00866847 0.995978 0.0891737   
     length 1.3959   
     axis 0 0 0   XYZ
    dof rx ry rz
    limits (-20.0 45.0)
           (-30.0 30.0)
           (-30.0 30.0)
  end
  begin
     id 15 
     name upperneck
     direction 0.0680679 0.992203 0.104404   
     length 1.39452   
     axis 0 0 0   XYZ
    dof rx ry rz
    limits (-20.0 45.0)
           (-30.0 30.0)
           (-30.0 30.0)
  end
  begin
     id 16
     name head
     direction 0.0242216 0.999358 0.0264054  
     length 1.40433  
     axis 0 0 0   XYZ
    dof rx ry rz
    limits (-20.0 45.0)
           (-30.0 30.0)
           (-30.0 30.0)
  end
  begin
     id 17 
     name lclavicle
     direction 0.929368 0.362991 -0.0671771  
     length 3.04887  
     axis 0 0 0   XYZ
    dof ry rz
    limits (-20.0 10.0)
           (0.0 20.0)
  end
  begin
     id 18 
     name lhumerus
     direction 1 -4.48967e-011 -7.13741e-028   
     length 4.77195   
     axis -180 -30 -90   XYZ
    dof rx ry rz
    limits (-60.0 90.0)
           (-90.0 90.0)
           (-90.0 90.0)
  end
  begin
     id 19
     name lradius
     direction 1 -4.48977e-011 3.60404e-027   
     length 2.98444   
     axis -180 -30 -90   XYZ
    dof rx
    limits (-10.0 170.0)
  end
  begin
     id 20
     name lwrist
     direction 1 -4.48997e-011 7.54877e-027   
     length 1.49222   
     axis -7.18178e-015 90 90   XYZ
    dof ry
    limits (-180.0 0.0)
 end
  begin
     id 21 
     name lhand
     direction 1 -4.489e-011 1.51105e-026   
     length 0.992285   
     axis -9.63605e-015 90 90   XYZ
    dof rx rz
    limits (-90.0 90.0)
           (-45.0 45.0)
  end
  begin
     id 22 
     name lfingers
     direction 1 -4.48998e-011 3.01948e-026   
     length 0.800006   
     axis -1.92718e-014 90 90   XYZ
    dof rx
    limits (0.0 90.0)
  end
  begin
     id 23
     name lthumb
     direction 0.707107 -6.34881e-011 0.707107   
     length 1.14865   
     axis -90 45 -3.53137e-014   XYZ
    dof rx rz
    limits (-45.0 45.0)
           (-45.0 45.0)
  end
  begin
     id 24 
     name rclavicle
     direction -0.945672 0.324529 0.0196374   
     length 3.4236  
     axis 0 0 0   XYZ 
    dof ry rz
    limits (-10.0 20.0)
           (-20.0 0.0)
  end
  begin
     id 25 
     name rhumerus
     direction -1 -4.4896e-011 1.02757e-029  
     length 4.62052   
     axis -180 30 90   XYZ
    dof rx ry rz
    limits (-90.0 60.0)
           (-90.0 90.0)
           (-90.0 90.0)
  end
  begin
     id 26 
     name rradius
     direction -1 -4.48982e-011 3.85962e-027   
     length 2.95332   
     axis -180 30 90   XYZ
    dof rx
    limits (-10.0 170.0)
  end
  begin
     id 27 
     name rwrist
     direction -1 -4.48961e-011 7.55118e-027   
     length 1.47666   
     axis -7.18178e-015 -90 -90   XYZ
    dof ry
    limits (-180.0 0.0)
  end
  begin
     id 28
     name rhand
     direction -1 -4.48984e-011 1.50994e-026   
     length 0.990956   
     axis -9.63605e-015 -90 -90   XYZ
    dof rx rz
    limits (-90.0 90.0)
           (-45.0 45.0)
  end
  begin
     id 29
     name rfingers
     direction -1 -4.4892e-011 3.02158e-026   
     length 0.798934   
     axis -1.92718e-014 -90 -90   XYZ
    dof rx
    limits (0.0 90.0)
  end
  begin
     id 30
     name rthumb
     direction -0.707107 -6.34916e-011 0.707107   
     length 1.14711   
     axis -90 -45 3.53137e-014   XYZ
    dof rx rz
    limits (-45.0 45.0)
           (-45.0 45.0)
  end
:hierarchy
  begin
    root lhipjoint rhipjoint lowerback
    lhipjoint lfemur
    lfemur ltibia
    ltibia lfoot
    lfoot ltoes
    rhipjoint rfemur
    rfemur rtibia
    rtibia rfoot
    rfoot rtoes
    lowerback upperback
    upperback thorax
    thorax lowerneck lclavicle rclavicle
    lowerneck upperneck
    upperneck head
    lclavicle lhumerus
    lhumerus lradius
    lradius lwrist
    lwrist lhand lthumb
    lhand lfingers
    rclavicle rhumerus
    rhumerus rradius
    rradius rwrist
    rwrist rhand rthumb
    rhand rfingers
  end

#!OML:ASF H:\ManfredObstacles\Project 1\Capture day 1\Session 1\Male.ASF
:FULLY-SPECIFIED
:DEGREES
345
root -1.03886 16.399 -5.5729 -176.542 -59.3692 -172.907
lowerback -10.0902 -0.753661 -0.265698
upperback 3.14661 -1.10236 1.33741
thorax 9.062 -0.598557 1.37778
lowerneck -2.07276 -0.862494 -4.89256
upperneck 11.3649 -1.93511 7.45813
head 3.82811 -0.923469 3.00153
rclavicle -7.4743e-014 -9.14409e-015
rhumerus -23.8431 -15.1526 -81.2548
rradius 30.3072
rwrist 26.663
rhand -0.494375 -5.74849
rfingers 7.12502
rthumb 25.1168 -34.1164
lclavicle -7.4743e-014 -9.14409e-015
lhumerus -24.8538 5.09844 87.0038
lradius 33.9402
lwrist -17.8251
lhand -8.30045 4.76812
lfingers 7.12502
lthumb 17.6197 33.9897
rfemur -16.8429 -10.2812 28.6076
rtibia 27.8415
rfoot -20.21 17.9883
rtoes 34.1422
lfemur -37.8904 -4.88573 -15.2874
ltibia 44.9809
lfoot -9.48463 7.51756
ltoes -2.525
346
root -1.19746 16.3968 -5.69008 -176.406 -59.007 -172.848
lowerback -10.2938 -0.632168 -0.133087
upperback 3.1042 -0.947103 1.22866
thorax 9.12578 -0.511366 1.21336
lowerneck -2.16228 -0.658092 -4.98928
upperneck 11.4867 -1.62775 7.23279
head 3.85978 -0.782305 2.96114
rclavicle -4.47266e-016 -9.74045e-015
rhumerus -23.2515 -13.7676 -82.2415
rradius 31.2112
rwrist 25.6285
rhand -0.300311 -5.56806
rfingers 7.12502
rthumb 25.3027 -33.9098
lclavicle -4.47266e-016 -9.74045e-015
lhumerus -24.5897 4.8397 87.2945
lradius 34.615
lwrist -17.5197
lhand -8.48042 5.06688
lfingers 7.12502
lthumb 17.4465 34.304
rfemur -15.9839 -10.0298 28.599
rtibia 27.3407
rfoot -20.5104 18.2318
rtoes 34.0053
lfemur -38.2306 -4.95185 -14.9343
ltibia 40.5756
lfoot -8.5036 6.78669
ltoes -5.08618
347
root -1.35773 16.3928 -5.81181 -176.414 -58.5744 -172.785
lowerback -10.3892 -0.443823 -0.0386995
upperback 3.10688 -0.695855 1.09882
thorax 9.17504 -0.379631 1.06666
lowerneck -2.35161 -0.525761 -5.07509
upperneck 11.6155 -1.42792 7.12982
head 3.91785 -0.686474 2.95232
rclavicle -1.63997e-014 -1.98785e-014
rhumerus -22.7446 -12.7623 -83.1565
rradius 31.9995
rwrist 24.8619
rhand -0.219504 -5.39244
rfingers 7.12502
rthumb 25.3801 -33.7232
lclavicle -1.63997e-014 -1.98785e-014
lhumerus -24.3135 4.42482 87.5523
lradius 35.0376
lwrist -17.0252
lhand -8.70202 5.50802
lfingers 7.12502
lthumb 17.2333 34.7639
rfemur -14.8541 -9.76254 28.5922
rtibia 26.6024
rfoot -20.7978 18.2435
rtoes 33.2559
lfemur -38.2521 -4.80377 -14.6531
ltibia 36.0597
lfoot -7.06964 5.66126
ltoes -6.91054
348
root -1.52208 16.3905 -5.94097 -176.491 -58.0872 -172.788
lowerback -10.4148 -0.238006 -0.0701427
upperback 3.13804 -0.404258 0.974081
thorax 9.21697 -0.236008 1.00442
lowerneck -2.45938 -0.383725 -4.86984
upperneck 11.6645 -1.20971 6.83352
head 3.93551 -0.580289 2.83596
rclavicle -9.24349e-015 2.34566e-014
rhumerus -22.317 -11.8042 -84.0168
rradius 32.6681
rwrist 24.1315
rhand -0.376723 -5.36566
rfingers 7.12502
rthumb 25.2295 -33.7178
lclavicle -9.24349e-015 2.34566e-014
lhumerus -24.08 4.4568 87.7127
lradius 35.1134
lwrist -17.0023
lhand -8.78647 5.61568
lfingers 7.12502
lthumb 17.152 34.8786
rfemur -13.4879 -9.51523 28.5514
rtibia 25.7483
rfoot -21.1185 18.1496
rtoes 32.2569
lfemur -37.966 -4.47036 -14.4408
ltibia 31.5643
lfoot -5.41928 4.07932
ltoes -6.1768
349
root -1.69194 16.3887 -6.06991 -176.63 -57.5256 -172.688
lowerback -10.5127 -0.1054 -0.109028
upperback 3.16134 -0.219029 0.945051
thorax 9.2962 -0.147943 1.02948
lowerneck -2.41501 -0.149958 -4.82548
upperneck 11.5531 -0.845328 6.48578
head 3.87227 -0.413219 2.7357
rclavicle -1.2275e-014 2.18663e-014
rhumerus -21.8687 -10.7971 -84.7983
rradius 33.1197
rwrist 23.8343
rhand -0.473909 -5.22267
rfingers 7.12502
rthumb 25.1364 -33.5879
lclavicle -1.2275e-014 2.18663e-014
lhumerus -24.0406 4.78378 87.8105
lradius 35.1691
lwrist -17.0316
lhand -8.80175 5.82697
lfingers 7.12502
lthumb 17.1373 35.0912
rfemur -12.096 -9.00924 28.5478
rtibia 24.8559
rfoot -21.4019 17.9342
rtoes 31.5657
lfemur -37.5964 -3.91756 -14.239
ltibia 27.2557
lfoot -3.83572 2.35752
ltoes -5.48449
